<?xml version="1.0" encoding="UTF-8" standalone="no" ?>
<!DOCTYPE svg PUBLIC "-//W3C//DTD SVG 1.1//EN" "http://www.w3.org/Graphics/SVG/1.1/DTD/svg11.dtd">
<svg xmlns="http://www.w3.org/2000/svg" xmlns:xlink="http://www.w3.org/1999/xlink" version="1.1" width="1080" height="1080" viewBox="0 0 1080 1080" xml:space="preserve">
<desc>Created with Fabric.js 5.2.4</desc>
<defs>
</defs>
<g transform="matrix(1 0 0 1 540 540)" id="bf987966-0de5-4007-8d3e-9ebce4e42568"  >
<rect style="stroke: none; stroke-width: 1; stroke-dasharray: none; stroke-linecap: butt; stroke-dashoffset: 0; stroke-linejoin: miter; stroke-miterlimit: 4; fill: rgb(255,255,255); fill-rule: nonzero; opacity: 1; visibility: hidden;" vector-effect="non-scaling-stroke"  x="-540" y="-540" rx="0" ry="0" width="1080" height="1080" />
</g>
<g transform="matrix(1 0 0 1 540 540)" id="4de9a6d8-ca0a-4df2-8296-3d56d483cb6a"  >
</g>
<g transform="matrix(6.36 0 0 6.27 394.56 606.26)"  >
<path style="stroke: none; stroke-width: 1; stroke-dasharray: none; stroke-linecap: butt; stroke-dashoffset: 0; stroke-linejoin: miter; stroke-miterlimit: 4; fill: rgb(228,197,144); fill-rule: nonzero; opacity: 1;" vector-effect="non-scaling-stroke"  transform=" translate(-56.7, -40.61)" d="M 54 44.46 L 54 36.76 L 56.651 36.76 C 57.2597 36.76 57.7583 36.8627 58.147 37.068 C 58.543 37.2733 58.8363 37.552 59.027 37.904 C 59.2177 38.2487 59.313 38.6337 59.313 39.059 C 59.313 39.5357 59.1847 39.9683 58.928 40.357 C 58.6787 40.7457 58.2863 41.0243 57.751 41.193 L 59.39 44.46 L 58.037 44.46 L 56.541 41.358 L 55.166 41.358 L 55.166 44.46 L 54 44.46 Z M 55.166 40.478 L 56.585 40.478 C 57.113 40.478 57.498 40.3497 57.74 40.093 C 57.9893 39.8363 58.114 39.5027 58.114 39.092 C 58.114 38.6813 57.993 38.355 57.751 38.113 C 57.509 37.8637 57.1167 37.739 56.574 37.739 L 55.166 37.739 L 55.166 40.478 Z" stroke-linecap="round" />
</g>
<g transform="matrix(6.36 0 0 6.27 460.7 606.26)"  >
<path style="stroke: none; stroke-width: 1; stroke-dasharray: none; stroke-linecap: butt; stroke-dashoffset: 0; stroke-linejoin: miter; stroke-miterlimit: 4; fill: rgb(228,197,144); fill-rule: nonzero; opacity: 1;" vector-effect="non-scaling-stroke"  transform=" translate(-67.1, -40.61)" d="M 64.6524 44.46 L 64.6524 36.76 L 69.5474 36.76 L 69.5474 37.706 L 65.8184 37.706 L 65.8184 40.104 L 69.2174 40.104 L 69.2174 41.028 L 65.8184 41.028 L 65.8184 43.514 L 69.5474 43.514 L 69.5474 44.46 L 64.6524 44.46 Z" stroke-linecap="round" />
</g>
<g transform="matrix(6.36 0 0 6.27 525.79 606.26)"  >
<path style="stroke: none; stroke-width: 1; stroke-dasharray: none; stroke-linecap: butt; stroke-dashoffset: 0; stroke-linejoin: miter; stroke-miterlimit: 4; fill: rgb(228,197,144); fill-rule: nonzero; opacity: 1;" vector-effect="non-scaling-stroke"  transform=" translate(-77.34, -40.61)" d="M 77.4376 44.592 C 76.8729 44.592 76.3779 44.493 75.9526 44.295 C 75.5272 44.097 75.1936 43.8147 74.9516 43.448 C 74.7169 43.0813 74.5959 42.645 74.5886 42.139 L 75.8206 42.139 C 75.8279 42.5497 75.9709 42.898 76.2496 43.184 C 76.5282 43.47 76.9206 43.613 77.4266 43.613 C 77.8739 43.613 78.2222 43.5067 78.4716 43.294 C 78.7282 43.074 78.8566 42.7953 78.8566 42.458 C 78.8566 42.1867 78.7942 41.9667 78.6696 41.798 C 78.5522 41.6293 78.3872 41.49 78.1746 41.38 C 77.9692 41.27 77.7309 41.171 77.4596 41.083 C 77.1882 40.995 76.9022 40.8997 76.6016 40.797 C 76.0076 40.599 75.5602 40.3423 75.2596 40.027 C 74.9662 39.7117 74.8196 39.2973 74.8196 38.784 C 74.8122 38.3513 74.9112 37.9737 75.1166 37.651 C 75.3292 37.3283 75.6226 37.079 75.9966 36.903 C 76.3779 36.7197 76.8216 36.628 77.3276 36.628 C 77.8262 36.628 78.2626 36.7197 78.6366 36.903 C 79.0179 37.0863 79.3149 37.343 79.5276 37.673 C 79.7402 37.9957 79.8502 38.3733 79.8576 38.806 L 78.6256 38.806 C 78.6256 38.608 78.5742 38.421 78.4716 38.245 C 78.3689 38.0617 78.2186 37.9113 78.0206 37.794 C 77.8226 37.6767 77.5806 37.618 77.2946 37.618 C 76.9279 37.6107 76.6236 37.7023 76.3816 37.893 C 76.1469 38.0837 76.0296 38.3477 76.0296 38.685 C 76.0296 38.9857 76.1176 39.2167 76.2936 39.378 C 76.4696 39.5393 76.7116 39.675 77.0196 39.785 C 77.3276 39.8877 77.6796 40.0087 78.0756 40.148 C 78.4569 40.2727 78.7979 40.423 79.0986 40.599 C 79.3992 40.775 79.6376 41.006 79.8136 41.292 C 79.9969 41.578 80.0886 41.941 80.0886 42.381 C 80.0886 42.7697 79.9896 43.1327 79.7916 43.47 C 79.5936 43.8 79.2966 44.0713 78.9006 44.284 C 78.5046 44.4893 78.0169 44.592 77.4376 44.592 Z" stroke-linecap="round" />
</g>
<g transform="matrix(6.36 0 0 6.27 590.8 606.26)"  >
<path style="stroke: none; stroke-width: 1; stroke-dasharray: none; stroke-linecap: butt; stroke-dashoffset: 0; stroke-linejoin: miter; stroke-miterlimit: 4; fill: rgb(228,197,144); fill-rule: nonzero; opacity: 1;" vector-effect="non-scaling-stroke"  transform=" translate(-87.57, -40.61)" d="M 86.9877 44.46 L 86.9877 37.706 L 84.7107 37.706 L 84.7107 36.76 L 90.4197 36.76 L 90.4197 37.706 L 88.1537 37.706 L 88.1537 44.46 L 86.9877 44.46 Z" stroke-linecap="round" />
</g>
<g transform="matrix(6.36 0 0 6.27 654.6 606.26)"  >
<path style="stroke: none; stroke-width: 1; stroke-dasharray: none; stroke-linecap: butt; stroke-dashoffset: 0; stroke-linejoin: miter; stroke-miterlimit: 4; fill: rgb(228,197,144); fill-rule: nonzero; opacity: 1;" vector-effect="non-scaling-stroke"  transform=" translate(-97.6, -40.61)" d="M 94.138 44.46 L 96.976 36.76 L 98.252 36.76 L 101.068 44.46 L 99.836 44.46 L 99.176 42.579 L 96.03 42.579 L 95.37 44.46 L 94.138 44.46 Z M 96.36 41.655 L 98.846 41.655 L 97.603 38.146 L 96.36 41.655 Z" stroke-linecap="round" />
</g>
<g transform="matrix(6.36 0 0 6.27 724.94 606.68)"  >
<path style="stroke: none; stroke-width: 1; stroke-dasharray: none; stroke-linecap: butt; stroke-dashoffset: 0; stroke-linejoin: miter; stroke-miterlimit: 4; fill: rgb(228,197,144); fill-rule: nonzero; opacity: 1;" vector-effect="non-scaling-stroke"  transform=" translate(-108.67, -40.68)" d="M 108.651 44.592 C 108.101 44.592 107.602 44.4857 107.155 44.273 C 106.715 44.053 106.363 43.7193 106.099 43.272 C 105.842 42.8247 105.714 42.2563 105.714 41.567 L 105.714 36.76 L 106.88 36.76 L 106.88 41.578 C 106.88 42.2527 107.041 42.7477 107.364 43.063 C 107.686 43.3783 108.123 43.536 108.673 43.536 C 109.215 43.536 109.648 43.3783 109.971 43.063 C 110.293 42.7477 110.455 42.2527 110.455 41.578 L 110.455 36.76 L 111.621 36.76 L 111.621 41.567 C 111.621 42.2563 111.485 42.8247 111.214 43.272 C 110.95 43.7193 110.59 44.053 110.136 44.273 C 109.688 44.4857 109.193 44.592 108.651 44.592 Z" stroke-linecap="round" />
</g>
<g transform="matrix(6.36 0 0 6.27 795.52 606.26)"  >
<path style="stroke: none; stroke-width: 1; stroke-dasharray: none; stroke-linecap: butt; stroke-dashoffset: 0; stroke-linejoin: miter; stroke-miterlimit: 4; fill: rgb(228,197,144); fill-rule: nonzero; opacity: 1;" vector-effect="non-scaling-stroke"  transform=" translate(-119.77, -40.61)" d="M 117.076 44.46 L 117.076 36.76 L 119.727 36.76 C 120.336 36.76 120.835 36.8627 121.223 37.068 C 121.619 37.2733 121.913 37.552 122.103 37.904 C 122.294 38.2487 122.389 38.6337 122.389 39.059 C 122.389 39.5357 122.261 39.9683 122.004 40.357 C 121.755 40.7457 121.363 41.0243 120.827 41.193 L 122.466 44.46 L 121.113 44.46 L 119.617 41.358 L 118.242 41.358 L 118.242 44.46 L 117.076 44.46 Z M 118.242 40.478 L 119.661 40.478 C 120.189 40.478 120.574 40.3497 120.816 40.093 C 121.066 39.8363 121.19 39.5027 121.19 39.092 C 121.19 38.6813 121.069 38.355 120.827 38.113 C 120.585 37.8637 120.193 37.739 119.65 37.739 L 118.242 37.739 L 118.242 40.478 Z" stroke-linecap="round" />
</g>
<g transform="matrix(6.36 0 0 6.27 864.99 606.26)"  >
<path style="stroke: none; stroke-width: 1; stroke-dasharray: none; stroke-linecap: butt; stroke-dashoffset: 0; stroke-linejoin: miter; stroke-miterlimit: 4; fill: rgb(228,197,144); fill-rule: nonzero; opacity: 1;" vector-effect="non-scaling-stroke"  transform=" translate(-130.7, -40.61)" d="M 127.234 44.46 L 130.072 36.76 L 131.348 36.76 L 134.164 44.46 L 132.932 44.46 L 132.272 42.579 L 129.126 42.579 L 128.466 44.46 L 127.234 44.46 Z M 129.456 41.655 L 131.942 41.655 L 130.699 38.146 L 129.456 41.655 Z" stroke-linecap="round" />
</g>
<g transform="matrix(6.36 0 0 6.27 938.7 606.26)"  >
<path style="stroke: none; stroke-width: 1; stroke-dasharray: none; stroke-linecap: butt; stroke-dashoffset: 0; stroke-linejoin: miter; stroke-miterlimit: 4; fill: rgb(228,197,144); fill-rule: nonzero; opacity: 1;" vector-effect="non-scaling-stroke"  transform=" translate(-142.29, -40.61)" d="M 139.198 44.46 L 139.198 36.76 L 140.364 36.76 L 144.225 42.557 L 144.225 36.76 L 145.391 36.76 L 145.391 44.46 L 144.225 44.46 L 140.364 38.663 L 140.364 44.46 L 139.198 44.46 Z" stroke-linecap="round" />
</g>
<g transform="matrix(6.36 0 0 6.27 1008.62 606.26)"  >
<path style="stroke: none; stroke-width: 1; stroke-dasharray: none; stroke-linecap: butt; stroke-dashoffset: 0; stroke-linejoin: miter; stroke-miterlimit: 4; fill: rgb(228,197,144); fill-rule: nonzero; opacity: 1;" vector-effect="non-scaling-stroke"  transform=" translate(-153.29, -40.61)" d="M 152.717 44.46 L 152.717 37.706 L 150.44 37.706 L 150.44 36.76 L 156.149 36.76 L 156.149 37.706 L 153.883 37.706 L 153.883 44.46 L 152.717 44.46 Z" stroke-linecap="round" />
</g>
<g transform="matrix(6.36 0 0 6.27 154.11 508.41)"  >
<path style="stroke: none; stroke-width: 1; stroke-dasharray: none; stroke-linecap: butt; stroke-dashoffset: 0; stroke-linejoin: miter; stroke-miterlimit: 4; fill: rgb(228,197,144); fill-rule: evenodd; opacity: 1;" vector-effect="non-scaling-stroke"  transform=" translate(-18.87, -25)" d="M 32.5132 42.597 C 29.684 44.1297 26.4436 45 23 45 C 11.9543 45 3 36.0457 3 25 C 3 13.9543 11.9543 5 23 5 C 26.0521 5 28.9446 5.68368 31.5326 6.90625 C 31.3663 7.11885 31.209 7.34319 31.0619 7.57929 C 30.37 8.68974 29.8253 10.0318 29.47 11.4633 C 27.5111 10.5253 25.3169 10 23 10 C 14.7157 10 8 16.7157 8 25 C 8 33.2843 14.7157 40 23 40 C 27.2915 40 31.162 38.1978 33.8961 35.309 C 33.5961 36.4152 33.1892 37.6031 32.6373 38.9318 C 32.2262 39.809 32.1122 40.4488 32.1122 41.4602 C 32.1122 41.8663 32.2596 42.247 32.5132 42.597 Z M 29.0138 14.6134 C 28.8567 18.2765 30.0306 21.8663 33.1625 23.2555 C 34.135 24.128 34.7379 25.2124 34.7379 26.6199 C 34.7379 26.9224 34.7379 27.2186 34.7371 27.5099 C 33.5832 32.9324 28.7666 37 23 37 C 16.3726 37 11 31.6274 11 25 C 11 18.3726 16.3726 13 23 13 C 25.1914 13 27.2456 13.5874 29.0138 14.6134 Z" stroke-linecap="round" />
</g>
<g transform="matrix(6.36 0 0 6.27 281.29 508.41)"  >
<path style="stroke: none; stroke-width: 1; stroke-dasharray: none; stroke-linecap: butt; stroke-dashoffset: 0; stroke-linejoin: miter; stroke-miterlimit: 4; fill: rgb(228,197,144); fill-rule: nonzero; opacity: 1;" vector-effect="non-scaling-stroke"  transform=" translate(-38.88, -25)" d="M 41.7607 22.8781 C 46.7982 20.5576 46.5779 13.151 43.8104 8.53905 C 40.9996 3.85445 36.7943 3.78631 33.9427 8.53905 C 31.1901 13.126 30.9363 20.5491 35.9923 22.8781 C 36.9183 23.7408 37.6263 25.4349 37.6263 26.8266 C 37.6263 31.0162 37.8838 34.3087 35.7001 39.1394 C 35.3086 40.0068 35.1257 40.6631 35.1257 41.2062 C 35.1257 43.2981 36.8081 45 38.8765 45 C 40.9449 45 42.6273 43.2981 42.6273 41.2062 C 42.6273 40.6631 42.4445 40.0068 42.053 39.1394 C 39.8389 34.2417 40.1268 30.7222 40.1268 26.8266 C 40.1268 25.4349 40.8348 23.7408 41.7607 22.8781 Z" stroke-linecap="round" />
</g>
</svg>